# xmcd
#
# Track frame offsets: 
#        150
#        13454
#        25398
#        36176
#        47069
#        57387
#        72361
#        76909
#        88992
#        98933
#        110657
#        119547
#        131445
#        142601
#        154261
#        166632
#        176618
#        193256
#        203576
#        214783
#
# Disc length: 3010 seconds
#
# Revision: 4
# Processed by: cddbd v1.5.2PL0 Copyright (c) Steve Scherf et al.
# Submitted via: ExactAudioCopy v1.3
#
DISCID=1e0bc014
DTITLE=Various Artist - 100 Hits - Country Greats
DYEAR=2006
DGENRE=Country
TTITLE0=Kenny Rogers - Ruby Don't Take Your Love To Town
TTITLE1=Frankie Laine - High Noon
TTITLE2=Billie Jo Spears - I'm So Lonesome I Could Cry
TTITLE3=Patsy Cline - I Don't Wanna
TTITLE4=Slim Whitman - Any Time You're Feeling Lonely
TTITLE5=Tex Ritter - I Dreamed Of A Hillbilly Heaven
TTITLE6=Willie Nelson - Where My House Lives
TTITLE7=Waylon Jennings - Don't Tink Twice
TTITLE8=Johnny Cash and The Tennessee Two - Hey Porter
TTITLE9=Lynn Anderson - Rodeo Cowboy
TTITLE10=Burl Ives - Little Bitty Tear
TTITLE11=Roy Drusky - Three Hearts In A Tangle
TTITLE12=Frankie Laine - Love Is A Golden Ring
TTITLE13=Patsy Cline - Walkin' After Midnight
TTITLE14=Kenny Rogers - Reuben James
TTITLE15=Slim Whitman - Cara Mia
TTITLE16=Lynn Anderson - Blue Bayou
TTITLE17=Billie Jo Spears - It Makes No Difference Now
TTITLE18=Willie Nelson - I Don't Feel Anything
TTITLE19=Frankie Laine - Answer Me
EXTD=
EXTT0=
EXTT1=
EXTT2=
EXTT3=
EXTT4=
EXTT5=
EXTT6=
EXTT7=
EXTT8=
EXTT9=
EXTT10=
EXTT11=
EXTT12=
EXTT13=
EXTT14=
EXTT15=
EXTT16=
EXTT17=
EXTT18=
EXTT19=
PLAYORDER=
